<?xml version="1.0" standalone="no"?>
<!DOCTYPE svg PUBLIC "-//W3C//DTD SVG 20010904//EN"
 "http://www.w3.org/TR/2001/REC-SVG-20010904/DTD/svg10.dtd">
<svg version="1.0" xmlns="http://www.w3.org/2000/svg"
 width="222.000000pt" height="227.000000pt" viewBox="0 0 222.000000 227.000000"
 preserveAspectRatio="xMidYMid meet">

<g transform="translate(0.000000,227.000000) scale(0.100000,-0.100000)"
fill="#000000" stroke="none">
<path d="M1010 2234 c-19 -3 -71 -11 -115 -20 -428 -83 -766 -417 -863 -854
-23 -103 -23 -347 0 -450 97 -437 423 -759 863 -856 117 -25 331 -23 453 4
434 99 772 450 847 881 30 170 14 392 -38 546 -125 364 -436 645 -805 725 -88
19 -274 32 -342 24z m328 -105 c382 -89 670 -374 768 -759 26 -103 27 -374 1
-470 -55 -199 -136 -345 -268 -479 l-72 -73 -58 6 c-162 19 -299 107 -360 233
-34 71 -36 117 -6 161 31 44 72 142 82 193 4 24 21 50 45 74 57 56 76 124 61
215 -6 38 -11 125 -11 193 0 166 -13 208 -91 291 -33 36 -79 76 -102 89 -172
101 -396 63 -537 -89 -72 -78 -83 -115 -91 -314 -5 -96 -11 -190 -15 -208 -11
-54 21 -136 66 -172 31 -25 40 -41 54 -97 19 -76 54 -154 88 -195 22 -28 22
-28 4 -85 -25 -82 -71 -148 -132 -195 -60 -45 -174 -93 -247 -103 l-49 -8 -60
59 c-248 242 -360 579 -303 909 101 579 667 957 1233 824z"/>
</g>
</svg>
